# xmcd
# Copyright (C) 1995-1998 Ti Kan
#
# Track frame offsets:
#       150
#       16829
#       29487
#       43249
#       59460
#       76301
#       103382
#       121824
#       147246
#       160881
#       178388
#       194121
#
# Disc length: 2944 seconds
#
# Revision: 0
# Processed by: cddbd v1.5.2PL0 Copyright (c) Steve Scherf et al.
# Submitted via: CD-Import v1.0
#
DISCID=b00b7e0c
DTITLE=Beautiful Leopard - Sometimes It Doesn't Work
DYEAR=09
DGENRE=
TTITLE0=A First Sight
TTITLE1=Take Care
TTITLE2=Hide
TTITLE3=Gibraltar
TTITLE4=Long Cold Winter
TTITLE5=Deep In The Blue
TTITLE6=Sunset Beach
TTITLE7=Sometimes It Doesn't Work
TTITLE8=Round The World
TTITLE9=Wilhelm Kaiser
TTITLE10=Lonesome Way
TTITLE11=Righters
EXTD=
EXTT0=
EXTT1=
EXTT2=
EXTT3=
EXTT4=
EXTT5=
EXTT6=
EXTT7=
EXTT8=
EXTT9=
EXTT10=
EXTT11=
PLAYORDER=
